<?xml version="1.0" standalone="no"?>
<!DOCTYPE svg PUBLIC "-//W3C//DTD SVG 20010904//EN"
 "http://www.w3.org/TR/2001/REC-SVG-20010904/DTD/svg10.dtd">
<svg version="1.0" xmlns="http://www.w3.org/2000/svg"
 width="260.000000pt" height="260.000000pt" viewBox="0 0 260.000000 260.000000"
 preserveAspectRatio="xMidYMid meet">
<metadata>
Created by potrace 1.11, written by Peter Selinger 2001-2013
</metadata>
<g transform="translate(0.000000,260.000000) scale(0.100000,-0.100000)"
fill="#000000" stroke="none">
<path d="M0 1300 l0 -1300 160 0 160 0 0 490 0 490 325 0 325 0 0 160 0 160
165 0 165 0 0 -160 0 -160 320 0 320 0 0 -160 0 -160 -160 0 -160 0 0 -165 0
-165 160 0 160 0 0 165 0 165 165 0 165 0 0 -165 0 -165 165 0 165 0 0 485 0
485 -165 0 -165 0 0 165 0 165 165 0 165 0 0 485 0 485 -1300 0 -1300 0 0
-1300z m1940 820 l0 -160 165 0 165 0 0 -165 0 -165 -325 0 -325 0 0 165 0
165 -160 0 -160 0 0 160 0 160 320 0 320 0 0 -160z m-970 -655 l0 -165 -325 0
-325 0 0 165 0 165 325 0 325 0 0 -165z"/>
<path d="M640 495 l0 -165 165 0 165 0 0 165 0 165 -165 0 -165 0 0 -165z"/>
</g>
</svg>
